<?xml version="1.0" encoding="UTF-8" standalone="no"?>
<!DOCTYPE svg PUBLIC "-//W3C//DTD SVG 1.1//EN"
 "http://www.w3.org/Graphics/SVG/1.1/DTD/svg11.dtd">
<!-- Generated by graphviz version 3.0.0 (20220226.1711)
 -->
<!-- Title: dependencies Pages: 1 -->
<svg width="196pt" height="247pt"
 viewBox="0.00 0.00 196.00 246.80" xmlns="http://www.w3.org/2000/svg" xmlns:xlink="http://www.w3.org/1999/xlink">
<g id="graph0" class="graph" transform="scale(1 1) rotate(0) translate(4 242.8)">
<title>dependencies</title>
<polygon fill="white" stroke="transparent" points="-4,4 -4,-242.8 192,-242.8 192,4 -4,4"/>
<text text-anchor="middle" x="94" y="-8.2" font-family="sans-serif" font-size="14.00">dependencies</text>
<g id="clust1" class="cluster">
<title>cluster_PubSubModule</title>
<polygon fill="none" stroke="black" stroke-dasharray="1,5" points="8,-32.8 8,-230.8 180,-230.8 180,-32.8 8,-32.8"/>
</g>
<g id="clust4" class="cluster">
<title>cluster_PubSubModule_exports</title>
<polygon fill="none" stroke="black" points="33,-170.8 33,-222.8 155,-222.8 155,-170.8 33,-170.8"/>
</g>
<g id="clust6" class="cluster">
<title>cluster_PubSubModule_providers</title>
<polygon fill="none" stroke="black" points="16,-40.8 16,-92.8 172,-92.8 172,-40.8 16,-40.8"/>
</g>
<!-- PubSubService  -->
<g id="node1" class="node">
<title>PubSubService </title>
<polygon fill="#fb8072" stroke="black" points="146.55,-214.8 41.45,-214.8 41.45,-178.8 146.55,-178.8 146.55,-214.8"/>
<text text-anchor="middle" x="94" y="-192.6" font-family="Times,serif" font-size="14.00">PubSubService </text>
</g>
<!-- PubSubModule -->
<g id="node2" class="node">
<title>PubSubModule</title>
<polygon fill="#8dd3c7" stroke="black" points="145.62,-149.8 142.62,-153.8 121.62,-153.8 118.62,-149.8 42.38,-149.8 42.38,-113.8 145.62,-113.8 145.62,-149.8"/>
<text text-anchor="middle" x="94" y="-127.6" font-family="Times,serif" font-size="14.00">PubSubModule</text>
</g>
<!-- PubSubModule&#45;&gt;PubSubService  -->
<g id="edge1" class="edge">
<title>PubSubModule&#45;&gt;PubSubService </title>
<path fill="none" stroke="black" stroke-dasharray="5,2" d="M94,-149.91C94,-149.91 94,-168.79 94,-168.79"/>
<polygon fill="black" stroke="black" points="90.5,-168.79 94,-178.79 97.5,-168.79 90.5,-168.79"/>
</g>
<!-- PubSubService -->
<g id="node3" class="node">
<title>PubSubService</title>
<ellipse fill="#fdb462" stroke="black" cx="94" cy="-66.8" rx="70.1" ry="18"/>
<text text-anchor="middle" x="94" y="-62.6" font-family="Times,serif" font-size="14.00">PubSubService</text>
</g>
<!-- PubSubService&#45;&gt;PubSubModule -->
<g id="edge2" class="edge">
<title>PubSubService&#45;&gt;PubSubModule</title>
<path fill="none" stroke="black" d="M94,-84.91C94,-84.91 94,-103.79 94,-103.79"/>
<polygon fill="black" stroke="black" points="90.5,-103.79 94,-113.79 97.5,-103.79 90.5,-103.79"/>
</g>
</g>
</svg>
