<?xml version="1.0" encoding="UTF-8" standalone="no"?>
<!DOCTYPE svg PUBLIC "-//W3C//DTD SVG 1.1//EN"
 "http://www.w3.org/Graphics/SVG/1.1/DTD/svg11.dtd">
<!-- Generated by graphviz version 3.0.0 (20220226.1711)
 -->
<!-- Title: dependencies Pages: 1 -->
<svg width="459pt" height="174pt"
 viewBox="0.00 0.00 459.00 173.80" xmlns="http://www.w3.org/2000/svg" xmlns:xlink="http://www.w3.org/1999/xlink">
<g id="graph0" class="graph" transform="scale(1 1) rotate(0) translate(4 169.8)">
<title>dependencies</title>
<polygon fill="white" stroke="transparent" points="-4,4 -4,-169.8 455,-169.8 455,4 -4,4"/>
<text text-anchor="middle" x="225.5" y="-8.2" font-family="sans-serif" font-size="14.00">dependencies</text>
<g id="clust1" class="cluster">
<title>cluster_GameModule</title>
<polygon fill="none" stroke="black" stroke-dasharray="1,5" points="8,-32.8 8,-157.8 443,-157.8 443,-32.8 8,-32.8"/>
</g>
<g id="clust6" class="cluster">
<title>cluster_GameModule_providers</title>
<polygon fill="none" stroke="black" points="16,-40.8 16,-92.8 435,-92.8 435,-40.8 16,-40.8"/>
</g>
<!-- GameFactory -->
<g id="node1" class="node">
<title>GameFactory</title>
<ellipse fill="#fdb462" stroke="black" cx="363" cy="-66.8" rx="63.69" ry="18"/>
<text text-anchor="middle" x="363" y="-62.6" font-family="Times,serif" font-size="14.00">GameFactory</text>
</g>
<!-- GameModule -->
<g id="node4" class="node">
<title>GameModule</title>
<polygon fill="#8dd3c7" stroke="black" points="273.48,-149.8 270.48,-153.8 249.48,-153.8 246.48,-149.8 180.52,-149.8 180.52,-113.8 273.48,-113.8 273.48,-149.8"/>
<text text-anchor="middle" x="227" y="-127.6" font-family="Times,serif" font-size="14.00">GameModule</text>
</g>
<!-- GameFactory&#45;&gt;GameModule -->
<g id="edge1" class="edge">
<title>GameFactory&#45;&gt;GameModule</title>
<path fill="none" stroke="black" d="M363,-84.91C363,-104.14 363,-131.8 363,-131.8 363,-131.8 283.8,-131.8 283.8,-131.8"/>
<polygon fill="black" stroke="black" points="283.8,-128.3 273.8,-131.8 283.8,-135.3 283.8,-128.3"/>
</g>
<!-- GameStore -->
<g id="node2" class="node">
<title>GameStore</title>
<ellipse fill="#fdb462" stroke="black" cx="227" cy="-66.8" rx="54.46" ry="18"/>
<text text-anchor="middle" x="227" y="-62.6" font-family="Times,serif" font-size="14.00">GameStore</text>
</g>
<!-- GameStore&#45;&gt;GameModule -->
<g id="edge2" class="edge">
<title>GameStore&#45;&gt;GameModule</title>
<path fill="none" stroke="black" d="M227,-84.91C227,-84.91 227,-103.79 227,-103.79"/>
<polygon fill="black" stroke="black" points="223.5,-103.79 227,-113.79 230.5,-103.79 223.5,-103.79"/>
</g>
<!-- PlayerFactory -->
<g id="node3" class="node">
<title>PlayerFactory</title>
<ellipse fill="#fdb462" stroke="black" cx="89" cy="-66.8" rx="65.41" ry="18"/>
<text text-anchor="middle" x="89" y="-62.6" font-family="Times,serif" font-size="14.00">PlayerFactory</text>
</g>
<!-- PlayerFactory&#45;&gt;GameModule -->
<g id="edge3" class="edge">
<title>PlayerFactory&#45;&gt;GameModule</title>
<path fill="none" stroke="black" d="M89,-84.91C89,-104.14 89,-131.8 89,-131.8 89,-131.8 170.28,-131.8 170.28,-131.8"/>
<polygon fill="black" stroke="black" points="170.28,-135.3 180.28,-131.8 170.28,-128.3 170.28,-135.3"/>
</g>
</g>
</svg>
