<?xml version="1.0" encoding="UTF-8" standalone="no"?>
<!DOCTYPE svg PUBLIC "-//W3C//DTD SVG 1.1//EN"
 "http://www.w3.org/Graphics/SVG/1.1/DTD/svg11.dtd">
<!-- Generated by graphviz version 3.0.0 (20220226.1711)
 -->
<!-- Title: dependencies Pages: 1 -->
<svg width="1084pt" height="261pt"
 viewBox="0.00 0.00 1084.00 260.80" xmlns="http://www.w3.org/2000/svg" xmlns:xlink="http://www.w3.org/1999/xlink">
<g id="graph0" class="graph" transform="scale(1 1) rotate(0) translate(4 256.8)">
<title>dependencies</title>
<polygon fill="white" stroke="transparent" points="-4,4 -4,-256.8 1080,-256.8 1080,4 -4,4"/>
<text text-anchor="middle" x="538" y="-8.2" font-family="sans-serif" font-size="14.00">dependencies</text>
<g id="clust1" class="cluster">
<title>cluster_AppModule</title>
<polygon fill="none" stroke="black" stroke-dasharray="1,5" points="165,-108.8 165,-236.8 508,-236.8 508,-108.8 165,-108.8"/>
</g>
<g id="clust3" class="cluster">
<title>cluster_AppModule_imports</title>
<polygon fill="none" stroke="black" points="173,-116.8 173,-168.8 500,-168.8 500,-116.8 173,-116.8"/>
</g>
<g id="clust7" class="cluster">
<title>cluster_GameModule</title>
<polygon fill="none" stroke="black" stroke-dasharray="1,5" points="8,-32.8 8,-100.8 443,-100.8 443,-32.8 8,-32.8"/>
</g>
<g id="clust12" class="cluster">
<title>cluster_GameModule_providers</title>
<polygon fill="none" stroke="black" points="16,-40.8 16,-92.8 435,-92.8 435,-40.8 16,-40.8"/>
</g>
<g id="clust13" class="cluster">
<title>cluster_JwtModule</title>
<polygon fill="none" stroke="black" stroke-dasharray="1,5" points="516,-176.8 516,-244.8 758,-244.8 758,-176.8 516,-176.8"/>
</g>
<g id="clust16" class="cluster">
<title>cluster_JwtModule_exports</title>
<polygon fill="none" stroke="black" points="654,-184.8 654,-236.8 750,-236.8 750,-184.8 654,-184.8"/>
</g>
<g id="clust18" class="cluster">
<title>cluster_JwtModule_providers</title>
<polygon fill="none" stroke="black" points="524,-184.8 524,-236.8 646,-236.8 646,-184.8 524,-184.8"/>
</g>
<g id="clust19" class="cluster">
<title>cluster_PubSubModule</title>
<polygon fill="none" stroke="black" stroke-dasharray="1,5" points="766,-176.8 766,-244.8 1068,-244.8 1068,-176.8 766,-176.8"/>
</g>
<g id="clust22" class="cluster">
<title>cluster_PubSubModule_exports</title>
<polygon fill="none" stroke="black" points="938,-184.8 938,-236.8 1060,-236.8 1060,-184.8 938,-184.8"/>
</g>
<g id="clust24" class="cluster">
<title>cluster_PubSubModule_providers</title>
<polygon fill="none" stroke="black" points="774,-184.8 774,-236.8 930,-236.8 930,-184.8 774,-184.8"/>
</g>
<!-- GameModule -->
<g id="node1" class="node">
<title>GameModule</title>
<polygon fill="#8dd3c7" stroke="black" points="273.48,-160.8 270.48,-164.8 249.48,-164.8 246.48,-160.8 180.52,-160.8 180.52,-124.8 273.48,-124.8 273.48,-160.8"/>
<text text-anchor="middle" x="227" y="-138.6" font-family="Times,serif" font-size="14.00">GameModule</text>
</g>
<!-- AppModule -->
<g id="node4" class="node">
<title>AppModule</title>
<polygon fill="#8dd3c7" stroke="black" points="372.66,-228.8 369.66,-232.8 348.66,-232.8 345.66,-228.8 289.34,-228.8 289.34,-192.8 372.66,-192.8 372.66,-228.8"/>
<text text-anchor="middle" x="331" y="-206.6" font-family="Times,serif" font-size="14.00">AppModule</text>
</g>
<!-- GameModule&#45;&gt;AppModule -->
<g id="edge1" class="edge">
<title>GameModule&#45;&gt;AppModule</title>
<path fill="none" stroke="black" d="M227,-161.02C227,-181.17 227,-210.8 227,-210.8 227,-210.8 279.3,-210.8 279.3,-210.8"/>
<polygon fill="black" stroke="black" points="279.3,-214.3 289.3,-210.8 279.3,-207.3 279.3,-214.3"/>
</g>
<!-- JwtModule -->
<g id="node2" class="node">
<title>JwtModule</title>
<polygon fill="#8dd3c7" stroke="black" points="370.5,-160.8 367.5,-164.8 346.5,-164.8 343.5,-160.8 291.5,-160.8 291.5,-124.8 370.5,-124.8 370.5,-160.8"/>
<text text-anchor="middle" x="331" y="-138.6" font-family="Times,serif" font-size="14.00">JwtModule</text>
</g>
<!-- JwtModule&#45;&gt;AppModule -->
<g id="edge2" class="edge">
<title>JwtModule&#45;&gt;AppModule</title>
<path fill="none" stroke="black" d="M317.83,-161.02C317.83,-161.02 317.83,-182.53 317.83,-182.53"/>
<polygon fill="black" stroke="black" points="314.33,-182.53 317.83,-192.53 321.33,-182.53 314.33,-182.53"/>
</g>
<!-- JwtService  -->
<g id="node8" class="node">
<title>JwtService </title>
<polygon fill="#fb8072" stroke="black" points="742.43,-228.8 661.57,-228.8 661.57,-192.8 742.43,-192.8 742.43,-228.8"/>
<text text-anchor="middle" x="702" y="-206.6" font-family="Times,serif" font-size="14.00">JwtService </text>
</g>
<!-- JwtModule&#45;&gt;JwtService  -->
<g id="edge7" class="edge">
<title>JwtModule&#45;&gt;JwtService </title>
<path fill="none" stroke="black" stroke-dasharray="5,2" d="M344.17,-160.99C344.17,-169.08 344.17,-176.8 344.17,-176.8 344.17,-176.8 702,-176.8 702,-176.8 702,-176.8 702,-182.61 702,-182.61"/>
<polygon fill="black" stroke="black" points="698.5,-182.61 702,-192.61 705.5,-182.61 698.5,-182.61"/>
</g>
<!-- PubSubModule -->
<g id="node3" class="node">
<title>PubSubModule</title>
<polygon fill="#8dd3c7" stroke="black" points="491.62,-160.8 488.62,-164.8 467.62,-164.8 464.62,-160.8 388.38,-160.8 388.38,-124.8 491.62,-124.8 491.62,-160.8"/>
<text text-anchor="middle" x="440" y="-138.6" font-family="Times,serif" font-size="14.00">PubSubModule</text>
</g>
<!-- PubSubModule&#45;&gt;AppModule -->
<g id="edge3" class="edge">
<title>PubSubModule&#45;&gt;AppModule</title>
<path fill="none" stroke="black" d="M440,-161.09C440,-183.01 440,-216.8 440,-216.8 440,-216.8 382.83,-216.8 382.83,-216.8"/>
<polygon fill="black" stroke="black" points="382.83,-213.3 372.83,-216.8 382.83,-220.3 382.83,-213.3"/>
</g>
<!-- PubSubService  -->
<g id="node10" class="node">
<title>PubSubService </title>
<polygon fill="#fb8072" stroke="black" points="1051.55,-228.8 946.45,-228.8 946.45,-192.8 1051.55,-192.8 1051.55,-228.8"/>
<text text-anchor="middle" x="999" y="-206.6" font-family="Times,serif" font-size="14.00">PubSubService </text>
</g>
<!-- PubSubModule&#45;&gt;PubSubService  -->
<g id="edge9" class="edge">
<title>PubSubModule&#45;&gt;PubSubService </title>
<path fill="none" stroke="black" stroke-dasharray="5,2" d="M491.59,-136.8C629.97,-136.8 999,-136.8 999,-136.8 999,-136.8 999,-182.51 999,-182.51"/>
<polygon fill="black" stroke="black" points="995.5,-182.51 999,-192.51 1002.5,-182.51 995.5,-182.51"/>
</g>
<!-- GameFactory -->
<g id="node5" class="node">
<title>GameFactory</title>
<ellipse fill="#fdb462" stroke="black" cx="363" cy="-66.8" rx="63.69" ry="18"/>
<text text-anchor="middle" x="363" y="-62.6" font-family="Times,serif" font-size="14.00">GameFactory</text>
</g>
<!-- GameFactory&#45;&gt;GameModule -->
<g id="edge4" class="edge">
<title>GameFactory&#45;&gt;GameModule</title>
<path fill="none" stroke="black" d="M299.21,-66.8C290.97,-66.8 285.32,-66.8 285.32,-66.8 285.32,-66.8 285.32,-142.8 285.32,-142.8 285.32,-142.8 283.52,-142.8 283.52,-142.8"/>
<polygon fill="black" stroke="black" points="283.52,-139.3 273.52,-142.8 283.52,-146.3 283.52,-139.3"/>
</g>
<!-- GameStore -->
<g id="node6" class="node">
<title>GameStore</title>
<ellipse fill="#fdb462" stroke="black" cx="227" cy="-66.8" rx="54.46" ry="18"/>
<text text-anchor="middle" x="227" y="-62.6" font-family="Times,serif" font-size="14.00">GameStore</text>
</g>
<!-- GameStore&#45;&gt;GameModule -->
<g id="edge5" class="edge">
<title>GameStore&#45;&gt;GameModule</title>
<path fill="none" stroke="black" d="M227,-84.81C227,-84.81 227,-114.65 227,-114.65"/>
<polygon fill="black" stroke="black" points="223.5,-114.65 227,-124.65 230.5,-114.65 223.5,-114.65"/>
</g>
<!-- PlayerFactory -->
<g id="node7" class="node">
<title>PlayerFactory</title>
<ellipse fill="#fdb462" stroke="black" cx="89" cy="-66.8" rx="65.41" ry="18"/>
<text text-anchor="middle" x="89" y="-62.6" font-family="Times,serif" font-size="14.00">PlayerFactory</text>
</g>
<!-- PlayerFactory&#45;&gt;GameModule -->
<g id="edge6" class="edge">
<title>PlayerFactory&#45;&gt;GameModule</title>
<path fill="none" stroke="black" d="M89,-84.81C89,-107.29 89,-142.8 89,-142.8 89,-142.8 170.28,-142.8 170.28,-142.8"/>
<polygon fill="black" stroke="black" points="170.28,-146.3 180.28,-142.8 170.28,-139.3 170.28,-146.3"/>
</g>
<!-- JwtService -->
<g id="node9" class="node">
<title>JwtService</title>
<ellipse fill="#fdb462" stroke="black" cx="585" cy="-210.8" rx="53.32" ry="18"/>
<text text-anchor="middle" x="585" y="-206.6" font-family="Times,serif" font-size="14.00">JwtService</text>
</g>
<!-- JwtService&#45;&gt;JwtModule -->
<g id="edge8" class="edge">
<title>JwtService&#45;&gt;JwtModule</title>
<path fill="none" stroke="black" d="M534.48,-204.8C473.96,-204.8 380.63,-204.8 380.63,-204.8 380.63,-204.8 380.63,-142.8 380.63,-142.8 380.63,-142.8 379.63,-142.8 379.63,-142.8"/>
<polygon fill="black" stroke="black" points="380.59,-139.3 370.59,-142.8 380.59,-146.3 380.59,-139.3"/>
</g>
<!-- PubSubService -->
<g id="node11" class="node">
<title>PubSubService</title>
<ellipse fill="#fdb462" stroke="black" cx="852" cy="-210.8" rx="70.1" ry="18"/>
<text text-anchor="middle" x="852" y="-206.6" font-family="Times,serif" font-size="14.00">PubSubService</text>
</g>
<!-- PubSubService&#45;&gt;PubSubModule -->
<g id="edge10" class="edge">
<title>PubSubService&#45;&gt;PubSubModule</title>
<path fill="none" stroke="black" d="M852,-192.53C852,-174.24 852,-148.8 852,-148.8 852,-148.8 501.76,-148.8 501.76,-148.8"/>
<polygon fill="black" stroke="black" points="501.76,-145.3 491.76,-148.8 501.76,-152.3 501.76,-145.3"/>
</g>
</g>
</svg>
