<?xml version="1.0" encoding="UTF-8" standalone="no"?>
<!DOCTYPE svg PUBLIC "-//W3C//DTD SVG 1.1//EN"
 "http://www.w3.org/Graphics/SVG/1.1/DTD/svg11.dtd">
<!-- Generated by graphviz version 3.0.0 (20220226.1711)
 -->
<!-- Title: dependencies Pages: 1 -->
<svg width="367pt" height="174pt"
 viewBox="0.00 0.00 367.00 173.80" xmlns="http://www.w3.org/2000/svg" xmlns:xlink="http://www.w3.org/1999/xlink">
<g id="graph0" class="graph" transform="scale(1 1) rotate(0) translate(4 169.8)">
<title>dependencies</title>
<polygon fill="white" stroke="transparent" points="-4,4 -4,-169.8 363,-169.8 363,4 -4,4"/>
<text text-anchor="middle" x="179.5" y="-8.2" font-family="sans-serif" font-size="14.00">dependencies</text>
<g id="clust1" class="cluster">
<title>cluster_AppModule</title>
<polygon fill="none" stroke="black" stroke-dasharray="1,5" points="8,-32.8 8,-157.8 351,-157.8 351,-32.8 8,-32.8"/>
</g>
<g id="clust3" class="cluster">
<title>cluster_AppModule_imports</title>
<polygon fill="none" stroke="black" points="16,-40.8 16,-92.8 343,-92.8 343,-40.8 16,-40.8"/>
</g>
<!-- GameModule -->
<g id="node1" class="node">
<title>GameModule</title>
<polygon fill="#8dd3c7" stroke="black" points="335.48,-84.8 332.48,-88.8 311.48,-88.8 308.48,-84.8 242.52,-84.8 242.52,-48.8 335.48,-48.8 335.48,-84.8"/>
<text text-anchor="middle" x="289" y="-62.6" font-family="Times,serif" font-size="14.00">GameModule</text>
</g>
<!-- AppModule -->
<g id="node4" class="node">
<title>AppModule</title>
<polygon fill="#8dd3c7" stroke="black" points="226.66,-149.8 223.66,-153.8 202.66,-153.8 199.66,-149.8 143.34,-149.8 143.34,-113.8 226.66,-113.8 226.66,-149.8"/>
<text text-anchor="middle" x="185" y="-127.6" font-family="Times,serif" font-size="14.00">AppModule</text>
</g>
<!-- GameModule&#45;&gt;AppModule -->
<g id="edge1" class="edge">
<title>GameModule&#45;&gt;AppModule</title>
<path fill="none" stroke="black" d="M289,-84.91C289,-104.14 289,-131.8 289,-131.8 289,-131.8 236.7,-131.8 236.7,-131.8"/>
<polygon fill="black" stroke="black" points="236.7,-128.3 226.7,-131.8 236.7,-135.3 236.7,-128.3"/>
</g>
<!-- JwtModule -->
<g id="node2" class="node">
<title>JwtModule</title>
<polygon fill="#8dd3c7" stroke="black" points="224.5,-84.8 221.5,-88.8 200.5,-88.8 197.5,-84.8 145.5,-84.8 145.5,-48.8 224.5,-48.8 224.5,-84.8"/>
<text text-anchor="middle" x="185" y="-62.6" font-family="Times,serif" font-size="14.00">JwtModule</text>
</g>
<!-- JwtModule&#45;&gt;AppModule -->
<g id="edge2" class="edge">
<title>JwtModule&#45;&gt;AppModule</title>
<path fill="none" stroke="black" d="M185,-84.91C185,-84.91 185,-103.79 185,-103.79"/>
<polygon fill="black" stroke="black" points="181.5,-103.79 185,-113.79 188.5,-103.79 181.5,-103.79"/>
</g>
<!-- PubSubModule -->
<g id="node3" class="node">
<title>PubSubModule</title>
<polygon fill="#8dd3c7" stroke="black" points="127.62,-84.8 124.62,-88.8 103.62,-88.8 100.62,-84.8 24.38,-84.8 24.38,-48.8 127.62,-48.8 127.62,-84.8"/>
<text text-anchor="middle" x="76" y="-62.6" font-family="Times,serif" font-size="14.00">PubSubModule</text>
</g>
<!-- PubSubModule&#45;&gt;AppModule -->
<g id="edge3" class="edge">
<title>PubSubModule&#45;&gt;AppModule</title>
<path fill="none" stroke="black" d="M76,-84.91C76,-104.14 76,-131.8 76,-131.8 76,-131.8 133.17,-131.8 133.17,-131.8"/>
<polygon fill="black" stroke="black" points="133.17,-135.3 143.17,-131.8 133.17,-128.3 133.17,-135.3"/>
</g>
</g>
</svg>
